<svg width="323" height="107" viewBox="0 0 323 107" fill="none" xmlns="http://www.w3.org/2000/svg">
<path d="M101.006 66.3759V43.2694H107.387C115.53 43.2694 119.601 47.0238 119.601 54.5326C119.601 58.099 118.468 60.9672 116.201 63.1371C113.945 65.2963 110.921 66.3759 107.129 66.3759H101.006ZM103.713 45.7186V63.9266H107.161C110.191 63.9266 112.549 63.1156 114.235 61.4935C115.922 59.8715 116.765 57.5726 116.765 54.597C116.765 48.6781 113.617 45.7186 107.323 45.7186H103.713ZM137.052 58.7865H125.402C125.445 60.6234 125.939 62.0414 126.884 63.0404C127.829 64.0394 129.129 64.5389 130.783 64.5389C132.642 64.5389 134.35 63.9266 135.907 62.702V65.1835C134.457 66.2362 132.54 66.7626 130.155 66.7626C127.824 66.7626 125.992 66.016 124.66 64.5228C123.328 63.0189 122.662 60.9081 122.662 58.1903C122.662 55.6229 123.387 53.5336 124.838 51.9222C126.299 50.3002 128.109 49.4891 130.268 49.4891C132.427 49.4891 134.097 50.1874 135.279 51.5839C136.461 52.9803 137.052 54.9193 137.052 57.4008V58.7865ZM134.344 56.5468C134.334 55.0214 133.963 53.8344 133.233 52.9857C132.513 52.1371 131.509 51.7128 130.219 51.7128C128.973 51.7128 127.915 52.1586 127.045 53.0502C126.175 53.9418 125.638 55.1073 125.434 56.5468H134.344ZM154.325 58.7865H142.675C142.718 60.6234 143.212 62.0414 144.157 63.0404C145.103 64.0394 146.403 64.5389 148.057 64.5389C149.915 64.5389 151.623 63.9266 153.181 62.702V65.1835C151.731 66.2362 149.813 66.7626 147.428 66.7626C145.097 66.7626 143.266 66.016 141.934 64.5228C140.602 63.0189 139.936 60.9081 139.936 58.1903C139.936 55.6229 140.661 53.5336 142.111 51.9222C143.572 50.3002 145.382 49.4891 147.541 49.4891C149.7 49.4891 151.371 50.1874 152.552 51.5839C153.734 52.9803 154.325 54.9193 154.325 57.4008V58.7865ZM151.618 56.5468C151.607 55.0214 151.237 53.8344 150.506 52.9857C149.786 52.1371 148.782 51.7128 147.493 51.7128C146.247 51.7128 145.189 52.1586 144.319 53.0502C143.448 53.9418 142.911 55.1073 142.707 56.5468H151.618ZM161.044 63.9911H160.98V73.9652H158.337V49.8759H160.98V52.7762H161.044C162.344 50.5848 164.245 49.4891 166.748 49.4891C168.875 49.4891 170.535 50.2303 171.727 51.7128C172.92 53.1844 173.516 55.161 173.516 57.6425C173.516 60.4032 172.844 62.6161 171.502 64.2811C170.159 65.9354 168.322 66.7626 165.991 66.7626C163.853 66.7626 162.204 65.8387 161.044 63.9911ZM160.98 57.3363V59.6405C160.98 61.0048 161.42 62.1649 162.301 63.121C163.193 64.0663 164.321 64.5389 165.685 64.5389C167.285 64.5389 168.537 63.9266 169.439 62.702C170.352 61.4774 170.809 59.7748 170.809 57.5941C170.809 55.7572 170.385 54.3177 169.536 53.2758C168.687 52.2338 167.538 51.7128 166.088 51.7128C164.552 51.7128 163.316 52.2499 162.382 53.3241C161.447 54.3876 160.98 55.725 160.98 57.3363ZM177.012 65.4413V62.2509C177.378 62.5731 177.813 62.8632 178.318 63.121C178.833 63.3788 179.37 63.599 179.929 63.7816C180.498 63.9535 181.068 64.0878 181.637 64.1844C182.206 64.2811 182.733 64.3295 183.216 64.3295C184.881 64.3295 186.122 64.0233 186.938 63.411C187.765 62.788 188.179 61.8964 188.179 60.7362C188.179 60.1132 188.039 59.5707 187.76 59.1088C187.491 58.6469 187.115 58.2279 186.632 57.8519C186.149 57.4652 185.574 57.1 184.908 56.7562C184.253 56.4017 183.544 56.0311 182.781 55.6444C181.975 55.2362 181.223 54.8226 180.525 54.4037C179.827 53.9847 179.22 53.5228 178.704 53.0179C178.189 52.5131 177.781 51.9437 177.48 51.3099C177.19 50.6654 177.045 49.9135 177.045 49.0541C177.045 48.0013 177.276 47.0883 177.738 46.3148C178.199 45.5306 178.806 44.8861 179.558 44.3812C180.31 43.8763 181.164 43.5004 182.12 43.2533C183.087 43.0062 184.07 42.8827 185.069 42.8827C187.346 42.8827 189.006 43.1566 190.048 43.7045V46.7499C188.684 45.8046 186.933 45.3319 184.795 45.3319C184.204 45.3319 183.614 45.3964 183.023 45.5253C182.432 45.6434 181.906 45.8422 181.444 46.1215C180.982 46.4008 180.606 46.7606 180.316 47.201C180.026 47.6415 179.881 48.1786 179.881 48.8124C179.881 49.4032 179.988 49.9135 180.203 50.3431C180.428 50.7728 180.756 51.1649 181.186 51.5194C181.615 51.8739 182.136 52.2177 182.749 52.5507C183.372 52.8837 184.086 53.2489 184.892 53.6464C185.719 54.0546 186.503 54.4843 187.244 54.9354C187.986 55.3866 188.635 55.8861 189.194 56.434C189.753 56.9818 190.193 57.5887 190.515 58.2548C190.848 58.9208 191.015 59.6835 191.015 60.5428C191.015 61.6815 190.789 62.6483 190.338 63.4432C189.898 64.2274 189.296 64.8666 188.533 65.3607C187.781 65.8549 186.911 66.2094 185.923 66.4242C184.935 66.6498 183.893 66.7626 182.797 66.7626C182.432 66.7626 181.981 66.7303 181.444 66.6659C180.906 66.6122 180.359 66.5262 179.8 66.4081C179.241 66.3007 178.71 66.1664 178.205 66.0052C177.711 65.8334 177.313 65.6454 177.012 65.4413ZM197.976 63.9911H197.911V73.9652H195.269V49.8759H197.911V52.7762H197.976C199.276 50.5848 201.177 49.4891 203.68 49.4891C205.807 49.4891 207.467 50.2303 208.659 51.7128C209.851 53.1844 210.448 55.161 210.448 57.6425C210.448 60.4032 209.776 62.6161 208.433 64.2811C207.091 65.9354 205.254 66.7626 202.923 66.7626C200.785 66.7626 199.136 65.8387 197.976 63.9911ZM197.911 57.3363V59.6405C197.911 61.0048 198.352 62.1649 199.233 63.121C200.124 64.0663 201.252 64.5389 202.616 64.5389C204.217 64.5389 205.469 63.9266 206.371 62.702C207.284 61.4774 207.74 59.7748 207.74 57.5941C207.74 55.7572 207.316 54.3177 206.468 53.2758C205.619 52.2338 204.469 51.7128 203.019 51.7128C201.483 51.7128 200.248 52.2499 199.313 53.3241C198.379 54.3876 197.911 55.725 197.911 57.3363ZM227.93 58.7865H216.281C216.323 60.6234 216.818 62.0414 217.763 63.0404C218.708 64.0394 220.008 64.5389 221.662 64.5389C223.521 64.5389 225.229 63.9266 226.786 62.702V65.1835C225.336 66.2362 223.419 66.7626 221.034 66.7626C218.703 66.7626 216.871 66.016 215.539 64.5228C214.207 63.0189 213.541 60.9081 213.541 58.1903C213.541 55.6229 214.266 53.5336 215.717 51.9222C217.177 50.3002 218.988 49.4891 221.147 49.4891C223.306 49.4891 224.976 50.1874 226.158 51.5839C227.34 52.9803 227.93 54.9193 227.93 57.4008V58.7865ZM225.223 56.5468C225.213 55.0214 224.842 53.8344 224.112 52.9857C223.392 52.1371 222.387 51.7128 221.098 51.7128C219.852 51.7128 218.794 52.1586 217.924 53.0502C217.054 53.9418 216.517 55.1073 216.313 56.5468H225.223ZM245.204 58.7865H233.554C233.597 60.6234 234.091 62.0414 235.036 63.0404C235.982 64.0394 237.281 64.5389 238.936 64.5389C240.794 64.5389 242.502 63.9266 244.06 62.702V65.1835C242.61 66.2362 240.692 66.7626 238.307 66.7626C235.976 66.7626 234.145 66.016 232.813 64.5228C231.481 63.0189 230.815 60.9081 230.815 58.1903C230.815 55.6229 231.54 53.5336 232.99 51.9222C234.451 50.3002 236.261 49.4891 238.42 49.4891C240.579 49.4891 242.25 50.1874 243.431 51.5839C244.613 52.9803 245.204 54.9193 245.204 57.4008V58.7865ZM242.497 56.5468C242.486 55.0214 242.115 53.8344 241.385 52.9857C240.665 52.1371 239.661 51.7128 238.372 51.7128C237.126 51.7128 236.068 52.1586 235.198 53.0502C234.327 53.9418 233.79 55.1073 233.586 56.5468H242.497ZM263.299 66.3759H260.656V63.5721H260.592C259.367 65.6991 257.477 66.7626 254.92 66.7626C252.847 66.7626 251.187 66.0267 249.941 64.5551C248.706 63.0726 248.088 61.0585 248.088 58.5126C248.088 55.7841 248.776 53.598 250.151 51.9545C251.526 50.3109 253.357 49.4891 255.645 49.4891C257.912 49.4891 259.561 50.3807 260.592 52.1639H260.656V41.9481H263.299V66.3759ZM260.656 58.9154V56.4823C260.656 55.1503 260.216 54.0223 259.335 53.0985C258.454 52.1747 257.337 51.7128 255.984 51.7128C254.372 51.7128 253.105 52.3036 252.181 53.4852C251.257 54.6669 250.795 56.2997 250.795 58.3837C250.795 60.285 251.236 61.7889 252.116 62.8954C253.008 63.9911 254.2 64.5389 255.694 64.5389C257.165 64.5389 258.358 64.0072 259.271 62.9437C260.195 61.8802 260.656 60.5375 260.656 58.9154ZM301.616 66.3759H298.926V50.8749C298.926 49.6503 299.001 48.1517 299.151 46.3793H299.087C298.829 47.4213 298.598 48.1678 298.394 48.619L290.498 66.3759H289.177L281.298 48.7479C281.072 48.2323 280.841 47.4427 280.605 46.3793H280.54C280.626 47.3031 280.669 48.8124 280.669 50.9071V66.3759H278.059V43.2694H281.636L288.726 59.3827C289.274 60.618 289.628 61.5419 289.789 62.1542H289.886C290.348 60.8866 290.719 59.9413 290.998 59.3182L298.233 43.2694H301.616V66.3759ZM310.414 66.3759H307.707V43.2694H310.414V66.3759ZM319.212 66.3759H316.505V43.2694H319.212V66.3759Z" fill="black"/>
<path d="M38.1268 68.5563C40.4335 66.2496 43.6392 65.7153 45.2868 67.363C46.9345 69.0106 46.4002 72.2163 44.0935 74.523C41.7868 76.8297 27.9835 84.6663 27.9835 84.6663C27.9835 84.6663 35.8201 70.863 38.1268 68.5563Z" fill="#FFC60F"/>
<circle cx="44.0938" cy="38.1266" r="3.79717" transform="rotate(45 44.0938 38.1266)" fill="#F17F00"/>
<circle cx="59.6072" cy="53.64" r="3.79717" transform="rotate(45 59.6072 53.64)" fill="#F17F00"/>
<circle cx="82.8772" cy="30.37" r="3.79717" transform="rotate(45 82.8772 30.37)" fill="#F17F00"/>
<circle cx="42.3037" cy="57.8165" r="3.79717" transform="rotate(45 42.3037 57.8165)" fill="#F17F00"/>
<circle cx="74.5242" cy="68.557" r="3.79717" transform="rotate(45 74.5242 68.557)" fill="#F17F00"/>
<circle cx="54.8342" cy="70.3469" r="3.79717" transform="rotate(45 54.8342 70.3469)" fill="#F17F00"/>
<line x1="43.9435" y1="38.2895" x2="82.8057" y2="30.3551" stroke="#F17F00" stroke-width="1.5"/>
<line x1="74.3605" y1="69.0022" x2="82.8786" y2="30.2092" stroke="#F17F00" stroke-width="1.5"/>
<line x1="44.4887" y1="37.6734" x2="42.4618" y2="57.8914" stroke="#F17F00" stroke-width="1.5"/>
<line x1="42.1252" y1="57.6813" x2="60.0254" y2="53.2893" stroke="#F17F00" stroke-width="1.5"/>
<line x1="59.9038" y1="53.1173" x2="54.9335" y2="70.7158" stroke="#F17F00"/>
<line x1="54.7643" y1="70.0542" x2="74.8159" y2="68.1765" stroke="#F17F00" stroke-width="1.5"/>
<line x1="54.4005" y1="70.5749" x2="43.9725" y2="37.8883" stroke="#F17F00" stroke-width="1.5"/>
<line x1="74.6647" y1="68.5722" x2="42.083" y2="58.5333" stroke="#F17F00" stroke-width="1.5"/>
<line x1="59.3182" y1="53.4698" x2="82.8676" y2="30.2344" stroke="#F17F00" stroke-width="1.5"/>
</svg>
